<svg width="53" height="41" viewBox="0 0 53 41" fill="none" xmlns="http://www.w3.org/2000/svg">
<path fill-rule="evenodd" clip-rule="evenodd" d="M44.7322 17.6047H9.52741C5.6075 17.6047 2.07739 20.4046 2.07739 24.2141V34.1467C2.07739 34.6038 2.81098 35.1766 3.28133 35.1766H50.9783C51.4489 35.1766 51.6252 34.6038 51.6252 34.1467V24.2141C51.6252 20.4046 48.6521 17.6047 44.7322 17.6047Z" stroke="#747783" stroke-width="2.60533" stroke-linecap="round" stroke-linejoin="round"/>
<path fill-rule="evenodd" clip-rule="evenodd" d="M51.6252 26.648C51.6252 26.1909 51.2439 25.8203 50.7735 25.8203H2.9291C2.45875 25.8203 2.07739 26.1909 2.07739 26.648V34.3491C2.07739 34.8062 2.45875 35.1768 2.9291 35.1768H50.7735C51.2439 35.1768 51.6252 34.8062 51.6252 34.3491V26.648Z" stroke="#747783" stroke-width="2.60533" stroke-linecap="round" stroke-linejoin="round"/>
<path d="M47.3986 15.0946V2.69314C47.3986 2.23604 47.1904 2.08679 46.7198 2.08679H7.54035C7.06999 2.08679 6.53929 2.23604 6.53929 2.69314V15.0946" stroke="#747783" stroke-width="2.60533" stroke-linecap="round" stroke-linejoin="round"/>
<path d="M2.07746 30.8408V39.0563" stroke="#747783" stroke-width="2.60533" stroke-linecap="round" stroke-linejoin="round"/>
<path d="M51.6251 30.8408V39.0563" stroke="#747783" stroke-width="2.60533" stroke-linecap="round" stroke-linejoin="round"/>
<path d="M38.6015 15.0737C38.6015 13.0228 39.054 10.863 39.054 10.863C39.054 10.499 38.7502 10.1679 38.3754 10.1679C38.3754 10.1679 36.2653 10.5892 34.1927 10.5892C32.1201 10.5892 29.7841 10.1407 29.7841 10.1407C29.4091 10.1407 29.1052 10.4313 29.1052 10.7955C29.1052 10.7955 29.5577 12.8785 29.5577 15.0759" stroke="#747783" stroke-width="2.60533" stroke-linecap="round" stroke-linejoin="round"/>
<path d="M24.7017 15.0737C24.7017 13.0228 25.1539 10.863 25.1539 10.863C25.1539 10.499 24.8501 10.1679 24.4755 10.1679C24.4755 10.1679 22.3652 10.5892 20.2928 10.5892C18.22 10.5892 15.884 10.1407 15.884 10.1407C15.509 10.1407 15.2056 10.4313 15.2056 10.7955C15.2056 10.7955 15.6576 12.8785 15.6576 15.0759" stroke="#747783" stroke-width="2.60533" stroke-linecap="round" stroke-linejoin="round"/>
</svg>
