<svg width="32" height="28" viewBox="0 0 32 28" fill="none" xmlns="http://www.w3.org/2000/svg">
<path d="M28.9306 2.62889C28.1667 1.86461 27.2597 1.25833 26.2614 0.844687C25.2631 0.431043 24.1931 0.21814 23.1125 0.21814C22.0319 0.21814 20.9619 0.431043 19.9636 0.844687C18.9653 1.25833 18.0583 1.86461 17.2944 2.62889L15.709 4.21429L14.1236 2.62889C12.5805 1.08582 10.4877 0.218939 8.30546 0.218939C6.12324 0.21894 4.0304 1.08582 2.48734 2.62889C0.944276 4.17195 0.0773926 6.26479 0.0773926 8.44701C0.0773926 10.6292 0.944276 12.7221 2.48734 14.2651L4.07274 15.8505L15.709 27.4868L27.3452 15.8505L28.9306 14.2651C29.6949 13.5012 30.3012 12.5942 30.7148 11.5959C31.1285 10.5976 31.3414 9.52761 31.3414 8.44701C31.3414 7.36641 31.1285 6.2964 30.7148 5.29811C30.3012 4.29982 29.6949 3.3928 28.9306 2.62889Z" fill="white"/>
</svg>
