<svg width="34" height="40" viewBox="0 0 34 40" fill="none" xmlns="http://www.w3.org/2000/svg">
<path fill-rule="evenodd" clip-rule="evenodd" d="M1.96005 17.2313C1.98778 9.06976 8.62652 2.47598 16.7881 2.50363C24.9497 2.53144 31.5434 9.17018 31.5158 17.3317V17.4991C31.4153 22.8044 28.453 27.708 24.8213 31.5406C22.7444 33.6973 20.425 35.6068 17.9094 37.2308C17.2367 37.8126 16.239 37.8126 15.5664 37.2308C11.8162 34.7898 8.52485 31.7081 5.84279 28.1264C3.45232 25.0032 2.09509 21.2123 1.96005 17.2815V17.2313Z" stroke="#200E32" stroke-width="3.908" stroke-linecap="round" stroke-linejoin="round"/>
<path opacity="0.4" d="M16.7382 22.252C19.354 22.252 21.4745 20.1315 21.4745 17.5157C21.4745 14.8999 19.354 12.7794 16.7382 12.7794C14.1224 12.7794 12.0019 14.8999 12.0019 17.5157C12.0019 20.1315 14.1224 22.252 16.7382 22.252Z" stroke="#200E32" stroke-width="3.908" stroke-linecap="round" stroke-linejoin="round"/>
</svg>
