<svg width="53" height="54" viewBox="0 0 53 54" fill="none" xmlns="http://www.w3.org/2000/svg">
<path d="M6.61326 43.8455H34.9917C35.5704 43.8455 36.1254 43.6157 36.5346 43.2065C36.9438 42.7973 37.1737 42.2423 37.1737 41.6636V13.2851C37.1737 12.7064 36.9438 12.1514 36.5346 11.7422C36.1254 11.333 35.5704 11.1031 34.9917 11.1031H24.0767V13.2851H34.9917V31.8382H24.0767V34.0202H34.9917V41.661H20.8025V32.9305H18.6206V41.661H6.61326V27.4743H19.7102V25.2924H16.436V22.0181H14.254V25.2924H6.61326V13.2851H17.5283V11.1031H6.61326C6.03457 11.1031 5.47959 11.333 5.07039 11.7422C4.6612 12.1514 4.43131 12.7064 4.43131 13.2851V41.6636C4.43131 42.2423 4.6612 42.7973 5.07039 43.2065C5.47959 43.6157 6.03457 43.8455 6.61326 43.8455Z" fill="#747783"/>
<path d="M45.142 39.7195V14.3769L46.5381 15.7731L48.0888 14.246L44.0497 10.1859L40.0552 14.1805L41.6058 15.7312L42.9601 14.3769V39.6095L41.6058 38.2553L40.0552 39.7824L44.0943 43.8425L48.0888 39.8479L46.5381 38.2972L45.142 39.7195Z" fill="#747783"/>
</svg>
